<svg width="780" height="165" viewBox="0 0 780 165" fill="none" xmlns="http://www.w3.org/2000/svg">
<path d="M31.96 37H70.12C79.24 37 87.28 38.76 94.24 42.28C101.28 45.72 106.72 50.6 110.56 56.92C114.48 63.24 116.44 70.6 116.44 79C116.44 87.4 114.48 94.76 110.56 101.08C106.72 107.4 101.28 112.32 94.24 115.84C87.28 119.28 79.24 121 70.12 121H31.96V37ZM69.16 105.04C77.56 105.04 84.24 102.72 89.2 98.08C94.24 93.36 96.76 87 96.76 79C96.76 71 94.24 64.68 89.2 60.04C84.24 55.32 77.56 52.96 69.16 52.96H51.4V105.04H69.16Z" fill="#43568B"/>
<path d="M133.021 57.88H141.541V121H133.021V57.88ZM137.341 44.08C135.581 44.08 134.101 43.48 132.901 42.28C131.701 41.08 131.101 39.64 131.101 37.96C131.101 36.36 131.701 34.96 132.901 33.76C134.101 32.56 135.581 31.96 137.341 31.96C139.101 31.96 140.581 32.56 141.781 33.76C142.981 34.88 143.581 36.24 143.581 37.84C143.581 39.6 142.981 41.08 141.781 42.28C140.581 43.48 139.101 44.08 137.341 44.08ZM187.327 57.4C195.567 57.4 201.887 59.48 206.287 63.64C210.687 67.72 212.887 73.8 212.887 81.88V121H204.727V111.16C202.807 114.44 199.967 117 196.207 118.84C192.527 120.68 188.127 121.6 183.007 121.6C175.967 121.6 170.367 119.92 166.207 116.56C162.047 113.2 159.967 108.76 159.967 103.24C159.967 97.88 161.887 93.56 165.727 90.28C169.647 87 175.847 85.36 184.327 85.36H204.367V81.52C204.367 76.08 202.847 71.96 199.807 69.16C196.767 66.28 192.327 64.84 186.487 64.84C182.487 64.84 178.647 65.52 174.967 66.88C171.287 68.16 168.127 69.96 165.487 72.28L161.647 65.92C164.847 63.2 168.687 61.12 173.167 59.68C177.647 58.16 182.367 57.4 187.327 57.4ZM184.327 114.88C189.127 114.88 193.247 113.8 196.687 111.64C200.127 109.4 202.687 106.2 204.367 102.04V91.72H184.567C173.767 91.72 168.367 95.48 168.367 103C168.367 106.68 169.767 109.6 172.567 111.76C175.367 113.84 179.287 114.88 184.327 114.88ZM294.703 57.88V113.32C294.703 124.04 292.063 131.96 286.783 137.08C281.583 142.28 273.703 144.88 263.143 144.88C257.303 144.88 251.743 144 246.463 142.24C241.263 140.56 237.023 138.2 233.743 135.16L238.063 128.68C241.103 131.4 244.783 133.52 249.103 135.04C253.503 136.56 258.103 137.32 262.903 137.32C270.903 137.32 276.783 135.44 280.543 131.68C284.303 128 286.183 122.24 286.183 114.4V106.36C283.543 110.36 280.063 113.4 275.743 115.48C271.503 117.56 266.783 118.6 261.583 118.6C255.663 118.6 250.263 117.32 245.383 114.76C240.583 112.12 236.783 108.48 233.983 103.84C231.263 99.12 229.903 93.8 229.903 87.88C229.903 81.96 231.263 76.68 233.983 72.04C236.783 67.4 240.583 63.8 245.383 61.24C250.183 58.68 255.583 57.4 261.583 57.4C266.943 57.4 271.783 58.48 276.103 60.64C280.423 62.8 283.903 65.92 286.543 70V57.88H294.703ZM262.423 111.04C266.983 111.04 271.103 110.08 274.783 108.16C278.463 106.16 281.303 103.4 283.303 99.88C285.383 96.36 286.423 92.36 286.423 87.88C286.423 83.4 285.383 79.44 283.303 76C281.303 72.48 278.463 69.76 274.783 67.84C271.183 65.84 267.063 64.84 262.423 64.84C257.863 64.84 253.743 65.8 250.063 67.72C246.463 69.64 243.623 72.36 241.543 75.88C239.543 79.4 238.543 83.4 238.543 87.88C238.543 92.36 239.543 96.36 241.543 99.88C243.623 103.4 246.463 106.16 250.063 108.16C253.743 110.08 257.863 111.04 262.423 111.04ZM350.688 57.4C358.608 57.4 364.888 59.72 369.528 64.36C374.248 68.92 376.608 75.6 376.608 84.4V121H368.088V85.24C368.088 78.68 366.448 73.68 363.168 70.24C359.888 66.8 355.208 65.08 349.128 65.08C342.328 65.08 336.928 67.12 332.928 71.2C329.008 75.2 327.048 80.76 327.048 87.88V121H318.528V57.88H326.688V69.52C329.008 65.68 332.208 62.72 336.288 60.64C340.448 58.48 345.248 57.4 350.688 57.4ZM425.774 121.6C419.694 121.6 414.214 120.24 409.334 117.52C404.454 114.72 400.614 110.88 397.814 106C395.014 101.12 393.614 95.6 393.614 89.44C393.614 83.28 395.014 77.76 397.814 72.88C400.614 68 404.454 64.2 409.334 61.48C414.214 58.76 419.694 57.4 425.774 57.4C431.854 57.4 437.334 58.76 442.214 61.48C447.094 64.2 450.894 68 453.614 72.88C456.414 77.76 457.814 83.28 457.814 89.44C457.814 95.6 456.414 101.12 453.614 106C450.894 110.88 447.094 114.72 442.214 117.52C437.334 120.24 431.854 121.6 425.774 121.6ZM425.774 114.04C430.254 114.04 434.254 113.04 437.774 111.04C441.374 108.96 444.174 106.04 446.174 102.28C448.174 98.52 449.174 94.24 449.174 89.44C449.174 84.64 448.174 80.36 446.174 76.6C444.174 72.84 441.374 69.96 437.774 67.96C434.254 65.88 430.254 64.84 425.774 64.84C421.294 64.84 417.254 65.88 413.654 67.96C410.134 69.96 407.334 72.84 405.254 76.6C403.254 80.36 402.254 84.64 402.254 89.44C402.254 94.24 403.254 98.52 405.254 102.28C407.334 106.04 410.134 108.96 413.654 111.04C417.254 113.04 421.294 114.04 425.774 114.04ZM492.128 121.6C487.008 121.6 482.088 120.88 477.368 119.44C472.728 117.92 469.088 116.04 466.448 113.8L470.288 107.08C472.928 109.16 476.248 110.88 480.248 112.24C484.248 113.52 488.408 114.16 492.728 114.16C498.488 114.16 502.728 113.28 505.448 111.52C508.248 109.68 509.648 107.12 509.648 103.84C509.648 101.52 508.888 99.72 507.368 98.44C505.848 97.08 503.928 96.08 501.608 95.44C499.288 94.72 496.208 94.04 492.368 93.4C487.248 92.44 483.128 91.48 480.008 90.52C476.888 89.48 474.208 87.76 471.968 85.36C469.808 82.96 468.728 79.64 468.728 75.4C468.728 70.12 470.928 65.8 475.328 62.44C479.728 59.08 485.848 57.4 493.688 57.4C497.768 57.4 501.848 57.96 505.928 59.08C510.008 60.12 513.368 61.52 516.008 63.28L512.288 70.12C507.088 66.52 500.888 64.72 493.688 64.72C488.248 64.72 484.128 65.68 481.328 67.6C478.608 69.52 477.248 72.04 477.248 75.16C477.248 77.56 478.008 79.48 479.528 80.92C481.128 82.36 483.088 83.44 485.408 84.16C487.728 84.8 490.928 85.48 495.008 86.2C500.048 87.16 504.088 88.12 507.128 89.08C510.168 90.04 512.768 91.68 514.928 94C517.088 96.32 518.168 99.52 518.168 103.6C518.168 109.12 515.848 113.52 511.208 116.8C506.648 120 500.288 121.6 492.128 121.6ZM588.879 92.08H536.079C536.559 98.64 539.079 103.96 543.639 108.04C548.199 112.04 553.959 114.04 560.919 114.04C564.839 114.04 568.439 113.36 571.719 112C574.999 110.56 577.839 108.48 580.239 105.76L585.039 111.28C582.239 114.64 578.719 117.2 574.479 118.96C570.319 120.72 565.719 121.6 560.679 121.6C554.199 121.6 548.439 120.24 543.399 117.52C538.439 114.72 534.559 110.88 531.759 106C528.959 101.12 527.559 95.6 527.559 89.44C527.559 83.28 528.879 77.76 531.519 72.88C534.239 68 537.919 64.2 542.559 61.48C547.279 58.76 552.559 57.4 558.399 57.4C564.239 57.4 569.479 58.76 574.119 61.48C578.759 64.2 582.399 68 585.039 72.88C587.679 77.68 588.999 83.2 588.999 89.44L588.879 92.08ZM558.399 64.72C552.319 64.72 547.199 66.68 543.039 70.6C538.959 74.44 536.639 79.48 536.079 85.72H580.839C580.279 79.48 577.919 74.44 573.759 70.6C569.679 66.68 564.559 64.72 558.399 64.72Z" fill="black"/>
<g filter="url(#filter0_d_135:63)">
<path d="M687.02 10.6692H703.277V156.351C699.865 156.45 692.018 156.588 687.923 156.351C683.829 156.114 682.805 152.699 682.805 151.021V102.757C667.852 102.954 636.983 103.29 633.13 103.053C629.276 102.816 628.112 99.9931 628.012 98.6113C628.112 90.2218 628.253 72.6136 628.012 69.2973C627.771 65.9809 631.323 64.5597 633.13 64.2636H683.106C682.805 49.0637 682.384 17.8941 683.106 14.8146C683.829 11.7352 686.016 10.7679 687.02 10.6692Z" fill="#43568B"/>
</g>
<path d="M703.277 84.4648L723.356 90.9849M703.277 84.4648C708.717 82.6708 711.767 81.665 717.206 79.8711M703.277 84.4648L711.279 67.2755M703.277 84.4648V64.0154M703.277 84.4648L711.279 96.9122M703.277 84.4648V113.509V134.551M731.136 84.4648L743.287 75.2774M731.136 84.4648L743.287 90.0958M731.136 84.4648L723.356 90.9849M731.136 84.4648L715.576 97.5049M731.136 84.4648L739.138 96.9122L753.956 101.061L743.287 90.0958M743.287 75.2774V67.2755M743.287 75.2774L749.511 80.0193H772.924M743.287 90.0958H765.514M723.356 90.9849L717.206 79.8711M724.912 67.2755L717.206 75.2774V79.8711M711.279 67.2755L717.206 41.1952V12.7439M711.279 67.2755L706.834 48.0116M711.279 96.9122V113.509L703.277 134.551M711.279 96.9122L715.576 97.5049M719.874 98.0977L715.576 97.5049M703.277 134.551V154.704L711.279 147.887L717.206 128.327" stroke="#374C62" stroke-opacity="0.58"/>
<path d="M716.317 40.0097L710.686 22.2277V12.1512L707.426 1.77832M707.426 48.0116L702.685 32.6005V65.7937L707.426 48.0116Z" stroke="#374C62" stroke-opacity="0.58"/>
<path d="M730.543 85.0573L717.207 80.3154" stroke="#374C62" stroke-opacity="0.4"/>
<path d="M710.39 21.9311L702.685 14.2256" stroke="#374C62" stroke-opacity="0.4"/>
<g filter="url(#filter1_d_135:63)">
<circle cx="773.22" cy="79.4264" r="2.37094" fill="#ECBE44"/>
<circle cx="773.22" cy="79.4264" r="1.87094" stroke="#EBE5D6" stroke-opacity="0.71"/>
<circle cx="744.769" cy="66.3863" r="2.37094" fill="#ECBE44"/>
<circle cx="744.769" cy="66.3863" r="1.87094" stroke="#EBE5D6" stroke-opacity="0.71"/>
<circle cx="717.503" cy="13.0401" r="2.37094" fill="#ECBE44"/>
<circle cx="717.503" cy="13.0401" r="1.87094" stroke="#EBE5D6" stroke-opacity="0.71"/>
<circle cx="702.685" cy="13.0401" r="2.37094" fill="#ECBE44"/>
<circle cx="702.685" cy="13.0401" r="1.87094" stroke="#EBE5D6" stroke-opacity="0.71"/>
<circle cx="709.205" cy="2.37094" r="2.37094" fill="#ECBE44"/>
<circle cx="709.205" cy="2.37094" r="1.87094" stroke="#EBE5D6" stroke-opacity="0.71"/>
<circle cx="703.277" cy="31.4149" r="2.37094" fill="#ECBE44"/>
<circle cx="703.277" cy="31.4149" r="1.87094" stroke="#EBE5D6" stroke-opacity="0.71"/>
<circle cx="718.096" cy="128.031" r="2.37094" fill="#ECBE44"/>
<circle cx="718.096" cy="128.031" r="1.87094" stroke="#EBE5D6" stroke-opacity="0.71"/>
<circle cx="716.317" cy="40.8985" r="2.37094" fill="#ECBE44"/>
<circle cx="716.317" cy="40.8985" r="1.87094" stroke="#EBE5D6" stroke-opacity="0.71"/>
<circle cx="711.576" cy="66.3863" r="2.37094" fill="#ECBE44"/>
<circle cx="711.576" cy="66.3863" r="1.87094" stroke="#EBE5D6" stroke-opacity="0.71"/>
<circle cx="707.426" cy="46.826" r="2.37094" fill="#ECBE44"/>
<circle cx="707.426" cy="46.826" r="1.87094" stroke="#EBE5D6" stroke-opacity="0.71"/>
<circle cx="702.685" cy="65.7935" r="2.37094" fill="#ECBE44"/>
<circle cx="702.685" cy="65.7935" r="1.87094" stroke="#EBE5D6" stroke-opacity="0.71"/>
<circle cx="703.87" cy="85.3539" r="2.37094" fill="#ECBE44"/>
<circle cx="703.87" cy="85.3539" r="1.87094" stroke="#EBE5D6" stroke-opacity="0.71"/>
<circle cx="710.39" cy="98.3939" r="2.37094" fill="#ECBE44"/>
<circle cx="710.39" cy="98.3939" r="1.87094" stroke="#EBE5D6" stroke-opacity="0.71"/>
<circle cx="722.838" cy="90.6886" r="2.37094" fill="#ECBE44"/>
<circle cx="722.838" cy="90.6886" r="1.87094" stroke="#EBE5D6" stroke-opacity="0.71"/>
<circle cx="716.317" cy="80.6119" r="2.37094" fill="#ECBE44"/>
<circle cx="716.317" cy="80.6119" r="1.87094" stroke="#EBE5D6" stroke-opacity="0.71"/>
<circle cx="724.616" cy="68.7572" r="2.37094" fill="#ECBE44"/>
<circle cx="724.616" cy="68.7572" r="1.87094" stroke="#EBE5D6" stroke-opacity="0.71"/>
<circle cx="719.874" cy="98.3939" r="2.37094" fill="#ECBE44"/>
<circle cx="719.874" cy="98.3939" r="1.87094" stroke="#EBE5D6" stroke-opacity="0.71"/>
<circle cx="731.136" cy="84.7611" r="2.37094" fill="#ECBE44"/>
<circle cx="731.136" cy="84.7611" r="1.87094" stroke="#EBE5D6" stroke-opacity="0.71"/>
<circle cx="744.769" cy="90.6886" r="2.37094" fill="#ECBE44"/>
<circle cx="744.769" cy="90.6886" r="1.87094" stroke="#EBE5D6" stroke-opacity="0.71"/>
<circle cx="765.514" cy="88.9102" r="2.37094" fill="#ECBE44"/>
<circle cx="765.514" cy="88.9102" r="1.87094" stroke="#EBE5D6" stroke-opacity="0.71"/>
<circle cx="753.66" cy="101.358" r="2.37094" fill="#ECBE44"/>
<circle cx="753.66" cy="101.358" r="1.87094" stroke="#EBE5D6" stroke-opacity="0.71"/>
</g>
<defs>
<filter id="filter0_d_135:63" x="624" y="10.6692" width="83.2773" height="153.813" filterUnits="userSpaceOnUse" color-interpolation-filters="sRGB">
<feFlood flood-opacity="0" result="BackgroundImageFix"/>
<feColorMatrix in="SourceAlpha" type="matrix" values="0 0 0 0 0 0 0 0 0 0 0 0 0 0 0 0 0 0 127 0" result="hardAlpha"/>
<feOffset dy="4"/>
<feGaussianBlur stdDeviation="2"/>
<feComposite in2="hardAlpha" operator="out"/>
<feColorMatrix type="matrix" values="0 0 0 0 0 0 0 0 0 0 0 0 0 0 0 0 0 0 0.25 0"/>
<feBlend mode="normal" in2="BackgroundImageFix" result="effect1_dropShadow_135:63"/>
<feBlend mode="normal" in="SourceGraphic" in2="effect1_dropShadow_135:63" result="shape"/>
</filter>
<filter id="filter1_d_135:63" x="696.314" y="0" width="83.2772" height="138.402" filterUnits="userSpaceOnUse" color-interpolation-filters="sRGB">
<feFlood flood-opacity="0" result="BackgroundImageFix"/>
<feColorMatrix in="SourceAlpha" type="matrix" values="0 0 0 0 0 0 0 0 0 0 0 0 0 0 0 0 0 0 127 0" result="hardAlpha"/>
<feOffset dy="4"/>
<feGaussianBlur stdDeviation="2"/>
<feComposite in2="hardAlpha" operator="out"/>
<feColorMatrix type="matrix" values="0 0 0 0 0 0 0 0 0 0 0 0 0 0 0 0 0 0 0.25 0"/>
<feBlend mode="normal" in2="BackgroundImageFix" result="effect1_dropShadow_135:63"/>
<feBlend mode="normal" in="SourceGraphic" in2="effect1_dropShadow_135:63" result="shape"/>
</filter>
</defs>
</svg>