<svg width="34" height="34" viewBox="0 0 34 34" fill="none" xmlns="http://www.w3.org/2000/svg">
<path d="M17 2.8335C18.1758 2.8334 19.307 3.28315 20.1618 4.09052C21.0166 4.89788 21.5301 6.00169 21.597 7.17558L21.6041 7.43766L21.6055 18.703L21.7189 18.8007C23.0391 19.9778 23.8701 21.6069 24.0479 23.3667L24.0748 23.7237L24.0833 24.0835C24.0835 25.2506 23.7953 26.3996 23.2444 27.4285C22.6935 28.4573 21.8969 29.3341 20.9254 29.9809C19.954 30.6276 18.8377 31.0244 17.676 31.1357C16.5143 31.2471 15.343 31.0697 14.2663 30.6193C13.1897 30.1689 12.241 29.4595 11.5046 28.5541C10.7682 27.6486 10.267 26.5753 10.0454 25.4294C9.82388 24.2836 9.88888 23.1007 10.2347 21.9861C10.5805 20.8714 11.1963 19.8594 12.0275 19.0402L12.2825 18.7993L12.3944 18.703L12.3958 7.43766C12.3956 6.30618 12.812 5.21423 13.5656 4.37022C14.3192 3.52621 15.3572 2.98925 16.4815 2.86183L16.7393 2.84058L17 2.8335ZM17 4.9585C16.3775 4.95855 15.7779 5.19271 15.3202 5.61448C14.8625 6.03625 14.5802 6.61475 14.5293 7.23508L14.5208 7.43766V19.7542L14.083 20.0729C13.2467 20.6813 12.6215 21.5359 12.295 22.5172C11.9685 23.4986 11.957 24.5574 12.2621 25.5456C12.5672 26.5338 13.1737 27.4018 13.9967 28.0282C14.8196 28.6545 15.8178 29.0079 16.8516 29.0388C17.8853 29.0697 18.9029 28.7766 19.7618 28.2004C20.6207 27.6243 21.2779 26.7941 21.6415 25.8259C22.0051 24.8577 22.0569 23.8001 21.7895 22.801C21.5222 21.8019 20.9492 20.9115 20.1506 20.2542L19.9169 20.0743L19.482 19.7556L19.4791 7.43766C19.4791 6.78015 19.2179 6.14956 18.753 5.68463C18.2881 5.21969 17.6575 4.9585 17 4.9585ZM17 11.3335C17.2818 11.3335 17.552 11.4454 17.7513 11.6447C17.9505 11.844 18.0625 12.1142 18.0625 12.396V20.7047C18.87 20.9586 19.56 21.4932 20.0075 22.2118C20.455 22.9304 20.6305 23.7855 20.502 24.6222C20.3736 25.459 19.9499 26.2221 19.3075 26.7734C18.6651 27.3247 17.8465 27.6278 17 27.6278C16.1534 27.6278 15.3349 27.3247 14.6925 26.7734C14.0501 26.2221 13.6263 25.459 13.4979 24.6222C13.3695 23.7855 13.5449 22.9304 13.9924 22.2118C14.4399 21.4932 15.1299 20.9586 15.9375 20.7047V12.396C15.9375 12.1142 16.0494 11.844 16.2487 11.6447C16.4479 11.4454 16.7182 11.3335 17 11.3335Z" fill="#43568B"/>
</svg>