<svg width="28" height="28" viewBox="0 0 28 28" fill="none" xmlns="http://www.w3.org/2000/svg">
<path d="M0 9.65506C0 4.64553 3.13911 0 7.43789 0C10.4207 0 12.6334 2.08353 14 5.04082C15.3658 2.08435 17.5793 0 20.5629 0C24.8617 0 28 4.64635 28 9.65506C28 10.5436 27.9043 11.41 27.7278 12.2533C26.9627 11.2544 25.9965 10.4492 24.8998 9.89647C23.803 9.34377 22.6035 9.05758 21.3889 9.05882C16.8786 9.05882 13.2222 12.9302 13.2222 17.7059C13.2219 19.3289 13.6529 20.9192 14.4661 22.2951C15.2792 23.6709 16.4417 24.7766 17.8204 25.4858C15.6504 27.1007 14 28 14 28C14 28 0 20.8386 0 9.65506Z" fill="#43568B"/>
<path d="M23.333 18.1178C23.3327 18.346 23.2876 18.5717 23.2006 18.7805C23.1136 18.9893 22.9865 19.1766 22.8275 19.3307C22.6684 19.4847 22.4809 19.6021 22.2768 19.6753C22.0726 19.7486 21.8564 19.7761 21.6416 19.7562C21.4269 19.7363 21.2185 19.6693 21.0295 19.5596C20.8405 19.4498 20.6751 19.2997 20.5438 19.1187C20.4125 18.9377 20.3182 18.7298 20.2668 18.5082C20.2154 18.2866 20.2081 18.056 20.2453 17.8312L18.363 15.8383L19.4636 14.6738L21.2517 16.5679C21.4865 16.4787 21.7382 16.4505 21.9854 16.4858C22.2327 16.5211 22.4683 16.6189 22.6723 16.7708C22.8764 16.9228 23.043 17.1245 23.158 17.3589C23.273 17.5934 23.333 17.8537 23.333 18.1178Z" fill="#43568B"/>
<path fill-rule="evenodd" clip-rule="evenodd" d="M27.9998 17.7061C27.9998 19.5626 27.3033 21.343 26.0635 22.6558C24.8236 23.9686 23.1421 24.7061 21.3887 24.7061C19.6353 24.7061 17.9538 23.9686 16.7139 22.6558C15.4741 21.343 14.7776 19.5626 14.7776 17.7061C14.7776 15.8495 15.4741 14.0691 16.7139 12.7563C17.9538 11.4436 19.6353 10.7061 21.3887 10.7061C23.1421 10.7061 24.8236 11.4436 26.0635 12.7563C27.3033 14.0691 27.9998 15.8495 27.9998 17.7061ZM26.4443 17.7061C26.4443 19.1257 25.9116 20.4873 24.9635 21.4912C24.0154 22.495 22.7295 23.059 21.3887 23.059C20.0479 23.059 18.762 22.495 17.8139 21.4912C16.8658 20.4873 16.3331 19.1257 16.3331 17.7061C16.3331 16.2864 16.8658 14.9248 17.8139 13.921C18.762 12.9171 20.0479 12.3531 21.3887 12.3531C22.7295 12.3531 24.0154 12.9171 24.9635 13.921C25.9116 14.9248 26.4443 16.2864 26.4443 17.7061Z" fill="#43568B"/>
</svg>