<svg width="42" height="42" viewBox="0 0 42 42" fill="none" xmlns="http://www.w3.org/2000/svg">
<g filter="url(#filter0_d_104:295)">
<path fill-rule="evenodd" clip-rule="evenodd" d="M21 32.3C29.4499 32.3 36.3 25.4499 36.3 17C36.3 8.55015 29.4499 1.7 21 1.7C12.5501 1.7 5.7 8.55015 5.7 17C5.7 25.4499 12.5501 32.3 21 32.3ZM21 34C30.3891 34 38 26.3891 38 17C38 7.6109 30.3891 0 21 0C11.6109 0 4 7.6109 4 17C4 26.3891 11.6109 34 21 34Z" fill="#43568B"/>
<path d="M10.7998 26.8852C10.7998 26.0072 11.456 25.2651 12.3298 25.1682C18.8876 24.4423 23.1418 24.5078 29.6851 25.1844C30.0119 25.2187 30.3215 25.3474 30.5763 25.5548C30.8311 25.7622 31.02 26.0394 31.1199 26.3524C31.2198 26.6654 31.2263 27.0007 31.1388 27.3173C31.0512 27.634 30.8734 27.9183 30.6269 28.1356C22.9047 34.8667 18.4915 34.7741 11.3438 28.1424C10.9953 27.8194 10.7998 27.3604 10.7998 26.8861V26.8852Z" fill="#43568B"/>
<path fill-rule="evenodd" clip-rule="evenodd" d="M29.5979 26.0296C23.1065 25.3581 18.9135 25.2952 12.4229 26.0134C11.986 26.0619 11.6502 26.435 11.6502 26.8864C11.6502 27.1295 11.7513 27.3598 11.9222 27.5196C15.465 30.8057 18.1493 32.2907 20.7732 32.3C23.4065 32.3094 26.2353 30.8363 30.0688 27.4958C30.1906 27.3874 30.2783 27.246 30.3212 27.0887C30.3641 26.9314 30.3604 26.765 30.3105 26.6098C30.2606 26.4546 30.1667 26.3172 30.0402 26.2143C29.9137 26.1115 29.7601 26.0476 29.5979 26.0304V26.0296ZM12.2367 24.3236C18.8633 23.5901 23.1796 23.6564 29.7739 24.3389C30.2655 24.3902 30.7314 24.5838 31.1147 24.8958C31.4979 25.2078 31.7819 25.6248 31.9318 26.0958C32.0817 26.5667 32.0911 27.0712 31.9587 27.5473C31.8264 28.0235 31.558 28.4508 31.1866 28.7768C27.2978 32.1666 24.0593 34.0128 20.7681 34C17.4676 33.9881 14.3719 32.1105 10.7671 28.7657C10.5089 28.5253 10.3032 28.2343 10.1627 27.9108C10.0221 27.5873 9.94978 27.2383 9.9502 26.8855C9.94896 26.2518 10.1816 25.6399 10.6035 25.167C11.0254 24.6941 11.6069 24.3935 12.2367 24.3228V24.3236Z" fill="#43568B"/>
<path d="M27.8002 13.5998C27.8002 15.4033 27.0838 17.1329 25.8085 18.4081C24.5333 19.6834 22.8037 20.3998 21.0002 20.3998C19.1967 20.3998 17.4671 19.6834 16.1919 18.4081C14.9166 17.1329 14.2002 15.4033 14.2002 13.5998C14.2002 11.7963 14.9166 10.0667 16.1919 8.79148C17.4671 7.51623 19.1967 6.7998 21.0002 6.7998C22.8037 6.7998 24.5333 7.51623 25.8085 8.79148C27.0838 10.0667 27.8002 11.7963 27.8002 13.5998Z" fill="#43568B"/>
<path fill-rule="evenodd" clip-rule="evenodd" d="M21.0002 18.6998C22.3528 18.6998 23.65 18.1625 24.6064 17.206C25.5629 16.2496 26.1002 14.9524 26.1002 13.5998C26.1002 12.2472 25.5629 10.95 24.6064 9.99356C23.65 9.03712 22.3528 8.4998 21.0002 8.4998C19.6476 8.4998 18.3504 9.03712 17.394 9.99356C16.4375 10.95 15.9002 12.2472 15.9002 13.5998C15.9002 14.9524 16.4375 16.2496 17.394 17.206C18.3504 18.1625 19.6476 18.6998 21.0002 18.6998ZM21.0002 20.3998C22.8037 20.3998 24.5333 19.6834 25.8085 18.4081C27.0838 17.1329 27.8002 15.4033 27.8002 13.5998C27.8002 11.7963 27.0838 10.0667 25.8085 8.79148C24.5333 7.51623 22.8037 6.7998 21.0002 6.7998C19.1967 6.7998 17.4671 7.51623 16.1919 8.79148C14.9166 10.0667 14.2002 11.7963 14.2002 13.5998C14.2002 15.4033 14.9166 17.1329 16.1919 18.4081C17.4671 19.6834 19.1967 20.3998 21.0002 20.3998Z" fill="#43568B"/>
</g>
<defs>
<filter id="filter0_d_104:295" x="0" y="0" width="42" height="42" filterUnits="userSpaceOnUse" color-interpolation-filters="sRGB">
<feFlood flood-opacity="0" result="BackgroundImageFix"/>
<feColorMatrix in="SourceAlpha" type="matrix" values="0 0 0 0 0 0 0 0 0 0 0 0 0 0 0 0 0 0 127 0" result="hardAlpha"/>
<feOffset dy="4"/>
<feGaussianBlur stdDeviation="2"/>
<feComposite in2="hardAlpha" operator="out"/>
<feColorMatrix type="matrix" values="0 0 0 0 0 0 0 0 0 0 0 0 0 0 0 0 0 0 0.25 0"/>
<feBlend mode="normal" in2="BackgroundImageFix" result="effect1_dropShadow_104:295"/>
<feBlend mode="normal" in="SourceGraphic" in2="effect1_dropShadow_104:295" result="shape"/>
</filter>
</defs>
</svg>