<svg width="34" height="34" viewBox="0 0 34 34" fill="none" xmlns="http://www.w3.org/2000/svg">
<path d="M5.66683 5.6665H28.3335C29.0849 5.6665 29.8056 5.96501 30.337 6.49637C30.8683 7.02772 31.1668 7.74839 31.1668 8.49984V25.4998C31.1668 26.2513 30.8683 26.972 30.337 27.5033C29.8056 28.0347 29.0849 28.3332 28.3335 28.3332H5.66683C4.91538 28.3332 4.19471 28.0347 3.66336 27.5033C3.13201 26.972 2.8335 26.2513 2.8335 25.4998V8.49984C2.8335 7.74839 3.13201 7.02772 3.66336 6.49637C4.19471 5.96501 4.91538 5.6665 5.66683 5.6665ZM5.66683 8.49984V25.4998H15.5835V8.49984H5.66683ZM28.3335 25.4998V8.49984H26.5768C26.9168 9.26484 26.846 10.0157 26.846 10.1007C26.7468 11.0498 26.081 12.0415 25.8402 12.3957L22.5393 16.0082L27.2427 15.9798L27.2568 17.7082L19.8902 17.6657L19.8335 16.249C19.8335 16.249 24.1543 11.6732 24.3668 11.2623C24.5652 10.8657 25.3727 8.49984 23.3752 8.49984C21.6327 8.57067 21.831 10.3415 21.831 10.3415L19.6493 10.3557C19.6493 10.3557 19.6635 9.42067 20.1877 8.49984H18.4168V25.4998H22.0718L22.0577 24.2815L23.4318 24.2673C23.4318 24.2673 24.721 24.0407 24.7352 22.7798C24.7918 21.3632 23.5877 21.3632 23.3752 21.3632C23.191 21.3632 21.8593 21.434 21.8593 22.5957H19.706C19.706 22.5957 19.7627 19.6773 23.3752 19.6773C27.0585 19.6773 26.8602 22.539 26.8602 22.539C26.8602 22.539 26.9168 24.3098 25.2877 24.9757L26.0243 25.4998H28.3335ZM12.6368 22.6665H10.5118V14.4498L7.96183 15.2432V13.5007L12.4102 11.914H12.6368V22.6665Z" fill="#43568B"/>
</svg>