<svg width="34" height="34" viewBox="0 0 34 34" fill="none" xmlns="http://www.w3.org/2000/svg">
<path d="M17.0001 2.8335C18.1759 2.8334 19.3072 3.28315 20.1619 4.09052C21.0167 4.89788 21.5302 6.00169 21.5972 7.17558L21.6042 7.43766L21.6057 18.703L21.719 18.8007C23.0392 19.9778 23.8702 21.6069 24.048 23.3667L24.0749 23.7237L24.0834 24.0835C24.0836 25.2506 23.7955 26.3996 23.2445 27.4285C22.6936 28.4573 21.897 29.3341 20.9256 29.9809C19.9541 30.6276 18.8379 31.0244 17.6761 31.1357C16.5144 31.2471 15.3431 31.0697 14.2665 30.6193C13.1898 30.1689 12.2411 29.4595 11.5047 28.5541C10.7684 27.6486 10.2671 26.5753 10.0456 25.4294C9.824 24.2836 9.88901 23.1007 10.2348 21.9861C10.5806 20.8714 11.1964 19.8594 12.0276 19.0402L12.2826 18.7993L12.3945 18.703L12.3959 7.43766C12.3957 6.30618 12.8121 5.21423 13.5657 4.37022C14.3193 3.52621 15.3573 2.98925 16.4816 2.86183L16.7394 2.84058L17.0001 2.8335ZM17.0001 4.9585C16.3777 4.95855 15.7781 5.19271 15.3203 5.61448C14.8626 6.03625 14.5803 6.61475 14.5294 7.23508L14.5209 7.43766V19.7542L14.0832 20.0729C13.2468 20.6813 12.6216 21.5359 12.2951 22.5172C11.9686 23.4986 11.9571 24.5574 12.2622 25.5456C12.5674 26.5338 13.1738 27.4018 13.9968 28.0282C14.8198 28.6545 15.818 29.0079 16.8517 29.0388C17.8855 29.0697 18.903 28.7766 19.7619 28.2004C20.6208 27.6243 21.278 26.7941 21.6416 25.8259C22.0052 24.8577 22.057 23.8001 21.7897 22.801C21.5223 21.8019 20.9493 20.9115 20.1507 20.2542L19.917 20.0743L19.4821 19.7556L19.4792 7.43766C19.4792 6.78015 19.2181 6.14956 18.7531 5.68463C18.2882 5.21969 17.6576 4.9585 17.0001 4.9585ZM17.0001 11.3335C17.2819 11.3335 17.5521 11.4454 17.7514 11.6447C17.9506 11.844 18.0626 12.1142 18.0626 12.396V20.7047C18.8702 20.9586 19.5602 21.4932 20.0077 22.2118C20.4552 22.9304 20.6306 23.7855 20.5022 24.6222C20.3737 25.459 19.95 26.2221 19.3076 26.7734C18.6652 27.3247 17.8466 27.6278 17.0001 27.6278C16.1535 27.6278 15.335 27.3247 14.6926 26.7734C14.0502 26.2221 13.6264 25.459 13.498 24.6222C13.3696 23.7855 13.545 22.9304 13.9925 22.2118C14.44 21.4932 15.13 20.9586 15.9376 20.7047V12.396C15.9376 12.1142 16.0495 11.844 16.2488 11.6447C16.448 11.4454 16.7183 11.3335 17.0001 11.3335Z" fill="#0C570A"/>
</svg>
